<?xml version="1.0" standalone="no"?>
<!DOCTYPE svg PUBLIC "-//W3C//DTD SVG 20010904//EN"
 "http://www.w3.org/TR/2001/REC-SVG-20010904/DTD/svg10.dtd">
<svg version="1.0" xmlns="http://www.w3.org/2000/svg"
 width="700.000000pt" height="700.000000pt" viewBox="0 0 700.000000 700.000000"
 preserveAspectRatio="xMidYMid meet">
<metadata>
Created by potrace 1.11, written by Peter Selinger 2001-2013
</metadata>
<g transform="translate(0.000000,700.000000) scale(0.100000,-0.100000)"
fill="#000000" stroke="none">
<path d="M544 6985 c-212 -46 -386 -184 -477 -377 -72 -153 -67 111 -64 -3133
2 -2981 2 -2935 36 -3020 47 -115 91 -183 169 -260 58 -58 155 -121 227 -149
122 -47 -17 -46 3090 -43 1601 2 2917 5 2925 8 8 3 42 13 75 23 236 70 430
299 464 548 4 33 7 1364 6 2957 l-2 2896 -21 72 c-71 235 -254 411 -492 472
-73 19 -135 20 -2975 20 -2380 -1 -2911 -3 -2961 -14z"/>
</g>
</svg>
